<mxfile host="app.diagrams.net" modified="2022-06-16T06:52:48.560Z" agent="5.0 (X11; Linux x86_64) AppleWebKit/537.36 (KHTML, like Gecko) Chrome/101.0.4951.64 Safari/537.36" etag="E3OtSNY83VJB8yMkutaa" version="18.1.3" type="github">
  <diagram id="cLQGnpIBgHVMD9t2Q3Sl" name="Page-1">
    <mxGraphModel dx="1209" dy="717" grid="1" gridSize="10" guides="1" tooltips="1" connect="1" arrows="1" fold="1" page="1" pageScale="1" pageWidth="850" pageHeight="1100" math="0" shadow="0">
      <root>
        <mxCell id="0" />
        <mxCell id="1" parent="0" />
        <mxCell id="Dsq_T1fQrubuRThdTYdz-5" value="" style="rounded=0;whiteSpace=wrap;html=1;" parent="1" vertex="1">
          <mxGeometry x="110" y="110" width="530" height="140" as="geometry" />
        </mxCell>
        <mxCell id="Dsq_T1fQrubuRThdTYdz-1" value="Network" style="rounded=0;whiteSpace=wrap;html=1;" parent="1" vertex="1">
          <mxGeometry x="320" y="160" width="120" height="60" as="geometry" />
        </mxCell>
        <mxCell id="Dsq_T1fQrubuRThdTYdz-2" value="User&lt;br&gt;username: support" style="whiteSpace=wrap;html=1;" parent="1" vertex="1">
          <mxGeometry x="160" y="160" width="120" height="60" as="geometry" />
        </mxCell>
        <mxCell id="Dsq_T1fQrubuRThdTYdz-3" value="openssh-server" style="rounded=0;whiteSpace=wrap;html=1;" parent="1" vertex="1">
          <mxGeometry x="480" y="160" width="120" height="60" as="geometry" />
        </mxCell>
        <mxCell id="Dsq_T1fQrubuRThdTYdz-6" value="Prepared by vendor" style="text;html=1;strokeColor=none;fillColor=none;align=center;verticalAlign=middle;whiteSpace=wrap;rounded=0;" parent="1" vertex="1">
          <mxGeometry x="160" y="120" width="130" height="20" as="geometry" />
        </mxCell>
        <mxCell id="Dsq_T1fQrubuRThdTYdz-7" value="" style="endArrow=classic;html=1;exitX=0.5;exitY=1;exitDx=0;exitDy=0;entryX=0.5;entryY=0;entryDx=0;entryDy=0;" parent="1" source="Dsq_T1fQrubuRThdTYdz-2" target="Dsq_T1fQrubuRThdTYdz-10" edge="1">
          <mxGeometry width="50" height="50" relative="1" as="geometry">
            <mxPoint x="400" y="320" as="sourcePoint" />
            <mxPoint x="380" y="370" as="targetPoint" />
          </mxGeometry>
        </mxCell>
        <mxCell id="Dsq_T1fQrubuRThdTYdz-8" value="" style="endArrow=classic;html=1;exitX=0.5;exitY=1;exitDx=0;exitDy=0;entryX=0.5;entryY=0;entryDx=0;entryDy=0;" parent="1" source="Dsq_T1fQrubuRThdTYdz-1" target="Dsq_T1fQrubuRThdTYdz-10" edge="1">
          <mxGeometry width="50" height="50" relative="1" as="geometry">
            <mxPoint x="400" y="320" as="sourcePoint" />
            <mxPoint x="380" y="370" as="targetPoint" />
          </mxGeometry>
        </mxCell>
        <mxCell id="Dsq_T1fQrubuRThdTYdz-9" value="" style="endArrow=classic;html=1;exitX=0.5;exitY=1;exitDx=0;exitDy=0;entryX=0.5;entryY=0;entryDx=0;entryDy=0;" parent="1" source="Dsq_T1fQrubuRThdTYdz-3" target="Dsq_T1fQrubuRThdTYdz-10" edge="1">
          <mxGeometry width="50" height="50" relative="1" as="geometry">
            <mxPoint x="400" y="320" as="sourcePoint" />
            <mxPoint x="380" y="370" as="targetPoint" />
          </mxGeometry>
        </mxCell>
        <mxCell id="Dsq_T1fQrubuRThdTYdz-10" value="" style="rounded=0;whiteSpace=wrap;html=1;" parent="1" vertex="1">
          <mxGeometry x="115" y="345" width="530" height="410" as="geometry" />
        </mxCell>
        <mxCell id="Dsq_T1fQrubuRThdTYdz-11" value="update packages" style="rounded=0;whiteSpace=wrap;html=1;" parent="1" vertex="1">
          <mxGeometry x="320" y="390" width="120" height="40" as="geometry" />
        </mxCell>
        <mxCell id="Dsq_T1fQrubuRThdTYdz-14" value="mount hard disk" style="rounded=0;whiteSpace=wrap;html=1;" parent="1" vertex="1">
          <mxGeometry x="320" y="460" width="120" height="40" as="geometry" />
        </mxCell>
        <mxCell id="Dsq_T1fQrubuRThdTYdz-15" value="" style="endArrow=classic;html=1;exitX=0.5;exitY=0;exitDx=0;exitDy=0;entryX=0.5;entryY=0;entryDx=0;entryDy=0;" parent="1" source="Dsq_T1fQrubuRThdTYdz-10" target="Dsq_T1fQrubuRThdTYdz-11" edge="1">
          <mxGeometry width="50" height="50" relative="1" as="geometry">
            <mxPoint x="400" y="380" as="sourcePoint" />
            <mxPoint x="450" y="330" as="targetPoint" />
          </mxGeometry>
        </mxCell>
        <mxCell id="Dsq_T1fQrubuRThdTYdz-16" value="mount hard disk" style="rounded=0;whiteSpace=wrap;html=1;" parent="1" vertex="1">
          <mxGeometry x="320" y="530" width="120" height="40" as="geometry" />
        </mxCell>
        <mxCell id="-jYOUkeZ4QBuL23A4gy--2" value="NB Office" style="swimlane;" vertex="1" parent="1">
          <mxGeometry x="820" y="910" width="340" height="210" as="geometry" />
        </mxCell>
        <mxCell id="-jYOUkeZ4QBuL23A4gy--1" value="centos" style="whiteSpace=wrap;html=1;aspect=fixed;" vertex="1" parent="-jYOUkeZ4QBuL23A4gy--2">
          <mxGeometry x="230" y="65" width="80" height="80" as="geometry" />
        </mxCell>
        <mxCell id="-jYOUkeZ4QBuL23A4gy--5" value="gitlab-runner&lt;br&gt;nb220" style="whiteSpace=wrap;html=1;aspect=fixed;" vertex="1" parent="-jYOUkeZ4QBuL23A4gy--2">
          <mxGeometry x="30" y="65" width="80" height="80" as="geometry" />
        </mxCell>
        <mxCell id="-jYOUkeZ4QBuL23A4gy--6" value="" style="endArrow=classic;html=1;rounded=0;exitX=1;exitY=0.5;exitDx=0;exitDy=0;entryX=0;entryY=0.5;entryDx=0;entryDy=0;" edge="1" parent="-jYOUkeZ4QBuL23A4gy--2" source="-jYOUkeZ4QBuL23A4gy--5" target="-jYOUkeZ4QBuL23A4gy--1">
          <mxGeometry width="50" height="50" relative="1" as="geometry">
            <mxPoint x="-210" y="110" as="sourcePoint" />
            <mxPoint x="-160" y="60" as="targetPoint" />
          </mxGeometry>
        </mxCell>
        <mxCell id="-jYOUkeZ4QBuL23A4gy--8" value="HK Office" style="swimlane;" vertex="1" parent="1">
          <mxGeometry x="810" y="1190" width="340" height="290" as="geometry" />
        </mxCell>
        <mxCell id="-jYOUkeZ4QBuL23A4gy--9" value="ubuntu-gpu-ci-base" style="whiteSpace=wrap;html=1;aspect=fixed;dashed=1;" vertex="1" parent="-jYOUkeZ4QBuL23A4gy--8">
          <mxGeometry x="210" y="170" width="80" height="80" as="geometry" />
        </mxCell>
        <mxCell id="-jYOUkeZ4QBuL23A4gy--10" value="gitlab-runner&lt;br&gt;qemu" style="whiteSpace=wrap;html=1;aspect=fixed;" vertex="1" parent="-jYOUkeZ4QBuL23A4gy--8">
          <mxGeometry x="30" y="65" width="80" height="80" as="geometry" />
        </mxCell>
        <mxCell id="-jYOUkeZ4QBuL23A4gy--11" value="" style="endArrow=classic;html=1;rounded=0;exitX=1;exitY=0.5;exitDx=0;exitDy=0;entryX=0;entryY=0.5;entryDx=0;entryDy=0;" edge="1" parent="-jYOUkeZ4QBuL23A4gy--8" source="-jYOUkeZ4QBuL23A4gy--10" target="-jYOUkeZ4QBuL23A4gy--9">
          <mxGeometry width="50" height="50" relative="1" as="geometry">
            <mxPoint x="-210" y="110" as="sourcePoint" />
            <mxPoint x="-160" y="60" as="targetPoint" />
          </mxGeometry>
        </mxCell>
        <mxCell id="-jYOUkeZ4QBuL23A4gy--16" style="edgeStyle=orthogonalEdgeStyle;rounded=0;orthogonalLoop=1;jettySize=auto;html=1;entryX=0.5;entryY=0;entryDx=0;entryDy=0;" edge="1" parent="-jYOUkeZ4QBuL23A4gy--8" source="-jYOUkeZ4QBuL23A4gy--15" target="-jYOUkeZ4QBuL23A4gy--9">
          <mxGeometry relative="1" as="geometry" />
        </mxCell>
        <mxCell id="-jYOUkeZ4QBuL23A4gy--15" value="ubuntu-gpu" style="whiteSpace=wrap;html=1;aspect=fixed;" vertex="1" parent="-jYOUkeZ4QBuL23A4gy--8">
          <mxGeometry x="210" y="40" width="80" height="80" as="geometry" />
        </mxCell>
        <mxCell id="-jYOUkeZ4QBuL23A4gy--12" value="GitLab" style="ellipse;whiteSpace=wrap;html=1;aspect=fixed;" vertex="1" parent="1">
          <mxGeometry x="490" y="1090" width="80" height="80" as="geometry" />
        </mxCell>
        <mxCell id="-jYOUkeZ4QBuL23A4gy--17" value="Clone" style="text;html=1;align=center;verticalAlign=middle;resizable=0;points=[];autosize=1;strokeColor=none;fillColor=none;" vertex="1" parent="1">
          <mxGeometry x="1035" y="1320" width="50" height="20" as="geometry" />
        </mxCell>
        <mxCell id="-jYOUkeZ4QBuL23A4gy--18" value="" style="endArrow=classic;html=1;rounded=0;exitX=1;exitY=0.5;exitDx=0;exitDy=0;entryX=0;entryY=0.5;entryDx=0;entryDy=0;" edge="1" parent="1" source="-jYOUkeZ4QBuL23A4gy--12" target="-jYOUkeZ4QBuL23A4gy--5">
          <mxGeometry width="50" height="50" relative="1" as="geometry">
            <mxPoint x="610" y="1260" as="sourcePoint" />
            <mxPoint x="660" y="1210" as="targetPoint" />
          </mxGeometry>
        </mxCell>
        <mxCell id="-jYOUkeZ4QBuL23A4gy--19" value="" style="endArrow=classic;html=1;rounded=0;exitX=1;exitY=0.5;exitDx=0;exitDy=0;entryX=0;entryY=0.5;entryDx=0;entryDy=0;" edge="1" parent="1" source="-jYOUkeZ4QBuL23A4gy--12" target="-jYOUkeZ4QBuL23A4gy--10">
          <mxGeometry width="50" height="50" relative="1" as="geometry">
            <mxPoint x="610" y="1260" as="sourcePoint" />
            <mxPoint x="660" y="1210" as="targetPoint" />
          </mxGeometry>
        </mxCell>
        <mxCell id="-jYOUkeZ4QBuL23A4gy--20" value="Gitlab-Runner" style="swimlane;" vertex="1" parent="1">
          <mxGeometry x="110" y="1310" width="480" height="380" as="geometry" />
        </mxCell>
        <mxCell id="-jYOUkeZ4QBuL23A4gy--23" value="/app/powerarena-deploy-ansible" style="rounded=1;whiteSpace=wrap;html=1;" vertex="1" parent="-jYOUkeZ4QBuL23A4gy--20">
          <mxGeometry x="30" y="60" width="180" height="60" as="geometry" />
        </mxCell>
        <mxCell id="-jYOUkeZ4QBuL23A4gy--24" value="/app/powerarena-deploy-ansible/resources" style="rounded=1;whiteSpace=wrap;html=1;" vertex="1" parent="-jYOUkeZ4QBuL23A4gy--20">
          <mxGeometry x="30" y="160" width="180" height="60" as="geometry" />
        </mxCell>
      </root>
    </mxGraphModel>
  </diagram>
</mxfile>
